<?xml version="1.0" encoding="UTF-8"?>
<svg width="262px" height="262px" viewBox="0 0 262 262" version="1.1" xmlns="http://www.w3.org/2000/svg" xmlns:xlink="http://www.w3.org/1999/xlink">
    <title>antd-logo</title>
    <defs>
        <linearGradient x1="62.0873403%" y1="0%" x2="108.125111%" y2="37.8635764%" id="linearGradient-1">
            <stop stop-color="#4285EB" offset="0%"></stop>
            <stop stop-color="#2EC7FF" offset="100%"></stop>
        </linearGradient>
        <linearGradient x1="69.6197896%" y1="0%" x2="54.037891%" y2="108.456714%" id="linearGradient-2">
            <stop stop-color="#29CDFF" offset="0%"></stop>
            <stop stop-color="#148EFF" offset="37.8600687%"></stop>
            <stop stop-color="#0A60FF" offset="100%"></stop>
        </linearGradient>
        <linearGradient x1="69.6664323%" y1="-12.9743587%" x2="16.764107%" y2="117.391248%" id="linearGradient-3">
            <stop stop-color="#FA816E" offset="0%"></stop>
            <stop stop-color="#F74A5C" offset="41.472606%"></stop>
            <stop stop-color="#F51D2C" offset="100%"></stop>
        </linearGradient>
        <linearGradient x1="68.1279872%" y1="-35.7968206%" x2="30.4400914%" y2="115.023201%" id="linearGradient-4">
            <stop stop-color="#FA8E7D" offset="0%"></stop>
            <stop stop-color="#F74A5C" offset="51.2635191%"></stop>
            <stop stop-color="#F51D2C" offset="100%"></stop>
        </linearGradient>
    </defs>
    <g id="misc-(favicon..)" stroke="none" stroke-width="1" fill="none" fill-rule="evenodd">
        <g id="Mobile-Copy" transform="translate(-29.000000, -29.000000)" fill-rule="nonzero">
            <g id="antd-logo" transform="translate(29.000000, 29.000000)">
                <g id="Group-25">
                    <g id="2">
                        <path d="M119.82324,4.66403301 L4.64416409,119.81972 C-1.5480547,126.010681 -1.5480547,136.01013 4.64416409,142.201091 L119.82324,257.356779 C126.015458,263.54774 136.016938,263.54774 142.209157,257.356779 L190.502098,209.073644 C196.047682,203.529187 196.047682,194.539844 190.502098,188.995387 C184.956514,183.450928 175.965346,183.450928 170.419762,188.995387 L133.809271,225.598444 C132.268037,227.139364 129.928902,227.139364 128.387668,225.598444 L36.4089492,133.638402 C34.8677158,132.097482 34.8677158,129.758822 36.4089492,128.217901 L128.387668,36.2578598 C129.928902,34.7169393 132.268037,34.7169393 133.809271,36.2578598 L170.419762,72.8609174 C175.965346,78.4053752 184.956514,78.4053752 190.502098,72.8609174 C196.047682,67.3164595 196.047682,58.3271171 190.502098,52.7826592 L142.21448,4.5047776 C135.996836,-1.55220888 125.991699,-1.50317405 119.82324,4.66403301 Z" id="Shape" fill="url(#linearGradient-1)"></path>
                        <path d="M119.82324,4.66403301 L4.64416409,119.81972 C-1.5480547,126.010681 -1.5480547,136.01013 4.64416409,142.201091 L119.82324,257.356779 C126.015458,263.54774 136.016938,263.54774 142.209157,257.356779 L190.502098,209.073644 C196.047682,203.529187 196.047682,194.539844 190.502098,188.995387 C184.956514,183.450928 175.965346,183.450928 170.419762,188.995387 L133.809271,225.598444 C132.268037,227.139364 129.928902,227.139364 128.387668,225.598444 L36.4089492,133.638402 C34.8677158,132.097482 34.8677158,129.758822 36.4089492,128.217901 L128.387668,36.2578598 C132.225289,32.9474217 138.486783,26.2422092 147.681818,24.6739791 C154.515405,23.5084983 161.986372,26.0737006 170.09472,32.3695864 C164.67378,26.9497407 155.380367,17.6614711 142.21448,4.5047776 C135.996836,-1.55220888 125.991699,-1.50317405 119.82324,4.66403301 Z" id="Shape" fill="url(#linearGradient-2)"></path>
                    </g>
                    <path d="M201.650168,178.285838 C207.195752,183.830295 216.186919,183.830295 221.732503,178.285838 L257.355745,142.669828 C263.547964,136.478867 263.547964,126.479418 257.35647,120.289179 L221.422685,84.4900909 C215.863973,78.9522142 206.86995,78.9602002 201.321084,84.5079395 C195.7755,90.0523973 195.7755,99.0417396 201.321084,104.586197 L225.590961,128.851146 C227.132194,130.392066 227.132194,132.730727 225.590961,134.271647 L201.650168,158.207579 C196.104583,163.752036 196.104583,172.741379 201.650168,178.285838 Z" id="Shape" fill="url(#linearGradient-3)"></path>
                </g>
                <ellipse id="Combined-Shape" fill="url(#linearGradient-4)" cx="131.592094" cy="131.586184" rx="31.0983504" ry="31.0920354"></ellipse>
            </g>
        </g>
    </g>
</svg>